<?xml version="1.0" encoding="utf-8"?>
<!-- Generator: Adobe Illustrator 22.1.0, SVG Export Plug-In . SVG Version: 6.00 Build 0)  -->
<svg version="1.1" id="Layer_1" xmlns="http://www.w3.org/2000/svg" xmlns:xlink="http://www.w3.org/1999/xlink" x="0px" y="0px"
	 viewBox="0 0 234.6 55" style="enable-background:new 0 0 234.6 55;" xml:space="preserve">
<style type="text/css">
	.st0{fill:#D40500;}
	.st1{font-family:'Wingdings-Regular';}
	.st2{font-size:12px;}
</style>
<title>logo</title>
<path class="st0" d="M147.5,19.3c-0.5,0-1.1,0.1-1.6,0.1c0-0.1-0.1-0.2-0.1-0.2c-0.1-0.2-0.1-0.4-0.2-0.6c-0.1-0.4-0.3-0.8-0.4-1.2
	c-0.1-0.4-0.3-0.8-0.5-1.2c-0.2-0.4-0.3-0.8-0.5-1.2c-0.2-0.4-0.4-0.8-0.6-1.1c-0.2-0.4-0.4-0.7-0.6-1.1c-0.2-0.4-0.5-0.7-0.7-1.1
	l-0.7-1c-0.3-0.3-0.5-0.7-0.8-1s-0.5-0.6-0.8-1s-0.6-0.6-0.9-0.9c-0.3-0.3-0.6-0.6-0.9-0.9c-0.3-0.3-0.6-0.5-0.9-0.8
	c-0.3-0.3-0.7-0.5-1-0.8c-0.3-0.3-0.7-0.5-1-0.7c-0.4-0.2-0.7-0.5-1-0.7c-0.3-0.2-0.7-0.4-1.1-0.6l-1.2-0.6
	c-0.4-0.2-0.8-0.4-1.2-0.5c-0.4-0.2-0.8-0.3-1.2-0.5c-0.4-0.1-0.8-0.3-1.2-0.4c-0.4-0.1-0.8-0.3-1.3-0.4s-0.9-0.2-1.3-0.3l-1.3-0.3
	c-0.4-0.1-0.9-0.1-1.3-0.2L122-0.1c-0.5-0.1-0.9-0.1-1.4-0.1c-0.4,0-0.9,0-1.3,0h-0.2c-14.7,0.1-26.7,10.6-27.4,24.7
	c0,0.3,0,0.7,0,1V26c0,0.3,0,0.6,0,0.9c0,0.3,0,0.5,0,0.8h-2.5c-0.1-0.3-0.2-0.5-0.3-0.8c-0.2-0.3-0.3-0.5-0.6-0.8
	c-0.2-0.2-0.5-0.4-0.7-0.6c-0.3-0.2-0.6-0.3-0.9-0.4c-0.3-0.1-0.7-0.1-1-0.1h-0.2c-0.7,0-1.4,0.3-2,0.7c-0.4,0.3-0.7,0.7-1,1
	c-0.4,0.6-0.7,1.3-0.7,2v0.2c0,0.4,0.1,0.7,0.1,1c0.1,0.4,0.2,0.7,0.4,1c0.2,0.3,0.4,0.5,0.6,0.8c0.2,0.2,0.5,0.4,0.8,0.6
	c0.3,0.2,0.7,0.3,1,0.4c0.3,0.1,0.6,0.1,0.9,0.1c0.1,0,0.2,0,0.3,0h0.1c1.5-0.1,2.8-1.1,3.3-2.5H92c0,0,0.1,0.7,0.1,0.8
	c0.1,0.3,0.1,0.5,0.2,0.8c0.1,0.5,0.3,1,0.4,1.6c0.3,1,0.7,2,1.1,3c0.4,0.9,0.9,1.8,1.4,2.7c0.5,0.9,1.1,1.8,1.8,2.6
	c0.7,0.9,1.4,1.7,2.2,2.5c0.6,0.6,1.2,1.1,1.8,1.6c0.4,0.3,0.7,0.6,1.1,0.8c0.4,0.3,0.8,0.5,1.2,0.8c0.4,0.3,0.8,0.5,1.2,0.8
	c0.4,0.2,0.8,0.5,1.3,0.7s0.9,0.4,1.3,0.7s0.9,0.4,1.4,0.6l1.5,0.5c0.4,0.1,0.8,0.3,1.2,0.4l0.3,0.1c0.5,0.1,1,0.3,1.6,0.4
	c0.6,0.1,1.1,0.2,1.6,0.3c0.2,0,0.3,0.1,0.5,0.1c0.1,0.4,0.3,0.7,0.5,1c0.3,0.4,0.6,0.8,1,1c0.1,0.1,0.3,0.2,0.4,0.3c0,0,0,0,0.1,0
	c0.6,0.3,1.2,0.5,1.8,0.5c0.4,0,0.9-0.1,1.3-0.2c0.2-0.1,0.3-0.1,0.5-0.2c0,0,0,0,0.1,0l0.2-0.1c0.8-0.5,1.5-1.3,1.7-2.2
	c0,0,0-0.1,0-0.1c0,0,0-0.1,0-0.1c0.1-0.3,0.1-0.7,0.1-1c0-1.1-0.4-2.1-1.2-2.9c-0.4-0.3-0.8-0.6-1.3-0.8l0,0v-6.8h-2
	c-0.6,0-1.2-0.1-1.8-0.2c-0.5-0.1-1.1-0.2-1.6-0.4c-0.5-0.1-1-0.3-1.5-0.5c-0.5-0.2-0.9-0.4-1.3-0.7c-0.4-0.2-0.8-0.5-1.2-0.8
	c-0.4-0.3-0.8-0.6-1.1-0.8s-0.7-0.7-1-1c-0.3-0.3-0.6-0.7-0.9-1.1c-0.3-0.4-0.5-0.8-0.8-1.2c-0.3-0.4-0.5-0.9-0.7-1.3
	c-0.2-0.5-0.4-1-0.5-1.5c-0.1-0.2-0.1-0.5-0.2-0.7h13.8v-2.5h-14.1v-0.3c0-0.8,0.1-1.5,0.3-2.3c0.1-0.7,0.4-1.4,0.6-2
	c1.3-3.1,3.8-5.6,6.8-6.9c0.7-0.3,1.4-0.6,2.1-0.8c0.8-0.2,1.6-0.3,2.4-0.4c0.4,0,0.8-0.1,1.2-0.1h1.4c0,0,0.1-0.5,0.1-0.7
	c0,0,0-0.1,0-0.1c0.1-0.2,0.1-0.3,0.2-0.5c0.1-0.2,0.2-0.4,0.3-0.6c0-0.1,0.1-0.1,0.1-0.2c0,0,0.1-0.1,0.1-0.1c0,0,0,0,0-0.1
	s0,0,0-0.1c0.9-1.3,2.3-2.3,3.8-2.7c0.9-0.3,1.8-0.6,2.7-0.7c0.7-0.1,1.4-0.2,2.1-0.1c0.2,0,0.4,0,0.6,0c0.4,0,0.9,0.1,1.3,0.1
	c0.5,0.1,1.1,0.2,1.6,0.4c0.5,0.2,1,0.4,1.4,0.6c0.4,0.2,0.9,0.5,1.2,0.8c0.4,0.3,0.8,0.6,1.1,0.9c0.3,0.3,0.7,0.6,1,1
	c0.3,0.3,0.6,0.7,0.9,1.1c0.3,0.4,0.6,0.8,0.8,1.2c0.3,0.4,0.5,0.9,0.7,1.3c0.2,0.5,0.5,0.9,0.6,1.4c0.2,0.5,0.4,1,0.5,1.5
	s0.2,0.8,0.3,1.1c0.1,0.4,0.1,0.8,0.2,1.2c-2,1.7-3.1,4.1-3.1,6.7c0,4.8,3.9,8.7,8.7,8.7s8.7-3.9,8.7-8.7
	C156.3,23.3,152.4,19.4,147.5,19.3z M83.9,28.8c0-0.9,0.7-1.6,1.6-1.6c0.9,0,1.6,0.7,1.6,1.6c0,0.9-0.7,1.6-1.6,1.6
	C84.6,30.4,83.9,29.7,83.9,28.8C83.9,28.8,83.9,28.8,83.9,28.8z M120.6,50.9c0,0.9-0.7,1.6-1.6,1.6c-0.9,0-1.6-0.7-1.6-1.6
	c0-0.9,0.7-1.6,1.6-1.6C119.9,49.4,120.6,50.1,120.6,50.9z M125,5.4c-0.8,0.2-1.5,0.5-2.3,0.9c-1.8,1-3.3,2.5-4.3,4.3
	c-0.5,0.9-0.7,1.5-0.8,1.6l0,0l-1,0.1c-0.6,0.1-1.1,0.2-1.7,0.3c-0.7,0.1-1.3,0.3-1.9,0.6c-0.9,0.3-1.7,0.7-2.5,1.2
	c-2.5,1.4-4.5,3.5-5.9,6c-0.4,0.8-0.8,1.6-1.1,2.5c-0.2,0.6-0.4,1.2-0.5,1.9c-0.1,0.5-0.2,1-0.2,1.6s-0.1,0.8-0.1,1.2v0.2
	c0,0.6,0.1,1.3,0.2,1.9c0.1,0.6,0.2,1.1,0.3,1.7c0.1,0.6,0.3,1,0.5,1.5c0.2,0.5,0.4,0.9,0.6,1.4c0.2,0.4,0.5,0.8,0.7,1.3
	c0.2,0.4,0.5,0.8,0.8,1.2c0.3,0.4,0.6,0.7,0.9,1c0.3,0.4,0.6,0.7,1,1c0.3,0.3,0.7,0.6,1.1,0.9c0.4,0.3,0.8,0.5,1.2,0.8
	c0.4,0.3,0.8,0.5,1.3,0.7c0.4,0.2,0.9,0.4,1.4,0.6c0.5,0.2,1,0.4,1.5,0.5c0.5,0.2,1.1,0.3,1.6,0.4c0.6,0.1,1.2,0.2,1.7,0.2v4.3l0,0
	c-0.5,0.2-0.9,0.4-1.2,0.8c-5-0.5-9.6-2.4-13.4-5.6c-0.3-0.2-0.5-0.4-0.7-0.7c-8.7-8.1-9.1-21.7-1-30.4c0.3-0.4,0.7-0.7,1-1
	c4.1-3.8,9.3-6,14.9-6.4c0.2,0,0.4,0,0.5,0s0.5,0,0.7,0s0.4,0,0.7,0c0.2,0,0.4,0,0.7,0c0.4,0,0.9,0,1.3,0.1l1.2,0.1
	c0.4,0,0.8,0.1,1.2,0.2s0.8,0.1,1.2,0.2s0.7,0.2,1.1,0.3s0.9,0.2,1.3,0.4C126.3,5.2,125.7,5.2,125,5.4z M147.5,32.5
	c-2.5,0-4.5-2-4.5-4.4s2-4.5,4.4-4.5s4.5,2,4.5,4.4c0,0,0,0,0,0C151.9,30.5,149.9,32.5,147.5,32.5z"/>
<ellipse class="st0" cx="112.8" cy="30.4" rx="8.8" ry="7.9"/>
<text transform="matrix(1 0 0 1 125.2333 22.4373)" class="st0 st1 st2">M</text>
</svg>
