<svg id="Layer_1" data-name="Layer 1" xmlns="http://www.w3.org/2000/svg" xmlns:xlink="http://www.w3.org/1999/xlink" viewBox="0 0 175 175"><defs><style>.cls-1{fill:none;}.cls-2{fill:#d5e0da;}.cls-3{clip-path:url(#clip-path);}.cls-4{fill:#7ec6b3;}.cls-5{fill:#7cc5b3;}.cls-6{fill:#79c5b2;}.cls-7{fill:#77c4b2;}.cls-8{fill:#75c4b1;}.cls-9{fill:#73c3b1;}.cls-10{fill:#70c3b1;}.cls-11{fill:#6ec2b0;}.cls-12{fill:#6cc2b0;}.cls-13{fill:#6ac1b0;}.cls-14{fill:#68c1af;}.cls-15{fill:#66c0af;}.cls-16{fill:#64c0ae;}.cls-17{fill:#62c0ae;}.cls-18{fill:#60bfae;}.cls-19{fill:#5ebfad;}.cls-20{fill:#5cbead;}.cls-21{fill:#5abead;}.cls-22{fill:#58bdac;}.cls-23{fill:#56bdac;}.cls-24{fill:#54bcac;}.cls-25{fill:#52bcab;}.cls-26{fill:#51bcab;}.cls-27{fill:#4fbbab;}.cls-28{fill:#4dbbaa;}.cls-29{fill:#4bbaaa;}.cls-30{fill:#4abaaa;}.cls-31{fill:#48baaa;}.cls-32{fill:#46b9a9;}.cls-33{fill:#44b9a9;}.cls-34{fill:#43b8a9;}.cls-35{fill:#41b8a8;}.cls-36{fill:#40b8a8;}.cls-37{fill:#3eb7a8;}.cls-38{fill:#3db7a8;}.cls-39{fill:#3bb7a7;}.cls-40{fill:#39b6a7;}.cls-41{fill:#38b6a7;}.cls-42{fill:#37b6a7;}.cls-43{fill:#35b5a6;}.cls-44{fill:#34b5a6;}.cls-45{fill:#32b5a6;}.cls-46{fill:#31b4a6;}.cls-47{fill:#30b4a5;}.cls-48{fill:#2eb4a5;}.cls-49{fill:#2db3a5;}.cls-50{fill:#2cb3a5;}.cls-51{fill:#2ab3a4;}.cls-52{fill:#29b2a4;}.cls-53{fill:#28b2a4;}.cls-54{fill:#27b2a4;}.cls-55{fill:#26b2a4;}.cls-56{fill:#24b1a3;}.cls-57{fill:#23b1a3;}.cls-58{fill:#22b1a3;}.cls-59{fill:#21b1a3;}.cls-60{fill:#20b0a3;}.cls-61{fill:#1fb0a2;}.cls-62{fill:#1eb0a2;}.cls-63{fill:#1db0a2;}.cls-64{fill:#1cafa2;}.cls-65{fill:#1bafa2;}.cls-66{fill:#1aafa2;}.cls-67{fill:#19afa1;}.cls-68{fill:#18afa1;}.cls-69{fill:#17aea1;}.cls-70{fill:#16aea1;}.cls-71{fill:#15aea1;}.cls-72{fill:#14aea0;}.cls-73{fill:#13ada0;}.cls-74{fill:#12ada0;}.cls-75{fill:#11ada0;}.cls-76{fill:#10ada0;}.cls-77{fill:#0faca0;}.cls-78{fill:#0eaca0;}.cls-79{fill:#0eac9f;}.cls-80{fill:#0dac9f;}.cls-81{fill:#0cac9f;}.cls-82{fill:#0bac9f;}.cls-83{fill:#0bab9f;}.cls-84{fill:#0aab9f;}.cls-85{fill:#09ab9f;}.cls-86{fill:#09ab9e;}.cls-87{fill:#08ab9e;}.cls-88{fill:#07ab9e;}.cls-89{fill:#06aa9e;}.cls-90{fill:#05aa9e;}.cls-91{fill:#04aa9e;}.cls-92{fill:#03aa9e;}.cls-93{fill:#03aa9d;}.cls-94{fill:#02aa9d;}.cls-95{fill:#02a99d;}.cls-96{fill:#01a99d;}.cls-97{fill:#00a99d;}</style><clipPath id="clip-path" transform="translate(0 0)"><path class="cls-1" d="M87.5,175A87.5,87.5,0,1,1,175,87.5,87.6,87.6,0,0,1,87.5,175Zm0-168.12A80.62,80.62,0,1,0,168.12,87.5,80.72,80.72,0,0,0,87.5,6.88Z"/></clipPath></defs><title>data-circle</title><path class="cls-2" d="M87.73,169.78h-.86l0-7h.83Zm.9,0-.1-7h.81l.17,7Zm-2.65,0-.89,0,.22-7,.8,0Zm4.41,0-.24-7,.81,0,.32,7Zm-6.17,0-.89,0,.36-7,.8,0Zm7.92-.06-.36-7,.8,0,.46,7Zm-9.7,0-.88-.06.51-7,.81.05Zm11.47-.09-.53-7,.81-.07.61,7Zm-13.23,0-.88-.08.65-7,.81.07Zm15-.12-.68-7,.8-.08.75,7Zm-16.75,0-.88-.1.8-7,.8.09Zm18.52-.15-.85-6.95.8-.1.92,6.94Zm-20.27,0-.89-.12,1-6.93.79.1Zm22-.18-1-6.93.8-.12,1.07,6.92Zm-23.77-.06-.87-.13,1.09-6.91.8.12Zm25.51-.21-1.13-6.91.8-.13,1.21,6.89Zm-27.26-.07-.87-.15L74,161.58l.8.14Zm29-.24-1.31-6.88.8-.16,1.36,6.87Zm-30.75-.07-.87-.17,1.38-6.86.79.16ZM104.4,168,103,161.19l.79-.17,1.5,6.84ZM70.2,168l-.86-.19,1.53-6.83.79.17Zm35.93-.3-1.57-6.82.78-.19,1.65,6.8Zm-37.66-.09-.85-.21,1.67-6.8.8.19Zm39.39-.33-1.74-6.78.79-.21L108.7,167Zm-41.11-.1-.85-.22,1.82-6.76.79.21Zm42.81-.35L107.68,160l.79-.22,1.94,6.72ZM65,166.68l-.84-.24,2-6.72.79.23Zm46.22-.38-2-6.7.78-.24L112.1,166Zm-47.91-.12-.84-.26,2.1-6.68.78.24Zm49.59-.41-2.16-6.66.77-.25,2.23,6.64Zm-51.28-.13-.84-.28,2.27-6.62.77.26Zm53-.43-2.3-6.61.76-.27,2.37,6.59ZM60,165.07l-.83-.3,2.41-6.57.76.28Zm56.31-.46-2.46-6.55.76-.29,2.52,6.53Zm-58-.15-.83-.32L60,157.62l.76.29Zm59.62-.48-2.6-6.5.75-.3,2.67,6.47Zm-61.28-.16-.81-.33L58.53,157l.76.31Zm62.9-.5-2.72-6.45.74-.32,2.79,6.42ZM55,163.13l-.82-.35,2.83-6.4.74.32Zm66.15-.53-2.87-6.38.73-.33,2.94,6.35Zm-67.78-.19L52.6,162l3-6.34.73.34Zm69.38-.55-3-6.32.74-.35,3.06,6.29Zm-71-.2-.79-.39L54.1,155l.74.36Zm72.57-.57-3.15-6.25.72-.37,3.21,6.22Zm-74.15-.21-.79-.41,3.24-6.21.72.37Zm75.72-.6-3.29-6.18.72-.39,3.33,6.16ZM48.64,160l-.78-.42,3.38-6.13.71.39Zm78.84-.61-3.4-6.12.7-.39,3.48,6.08Zm-80.38-.25-.77-.44,3.51-6.06.7.4Zm81.91-.63-3.52-6,.69-.41,3.6,6Zm-83.45-.26-.76-.45,3.63-6,.7.42Zm85-.65-3.66-6,.69-.43,3.72,5.93ZM44,157.39l-.75-.47,3.77-5.9.69.43Zm88-.67-3.78-5.89.67-.44,3.86,5.84Zm-89.46-.29-.75-.5,3.91-5.81.67.44Zm90.92-.68-3.88-5.82.65-.44,4,5.76Zm-92.39-.31-.73-.51,4-5.73.66.46Zm93.86-.71-4-5.72.66-.47,4.1,5.67Zm-95.3-.31-.72-.52L43,148.27l.65.47Zm96.73-.72-4.15-5.63.64-.48,4.22,5.58Zm-98.16-.32-.71-.54,4.27-5.55.64.48Zm99.55-.74-4.25-5.56.62-.48,4.35,5.49Zm-101-.34-.7-.56,4.39-5.45.63.5Zm102.36-.76-4.4-5.45.63-.51,4.46,5.4Zm-103.74-.34-.68-.57,4.5-5.37.62.51Zm105.11-.79L136,145.09l.63-.54,4.56,5.31Zm-106.47-.35-.66-.57L38,144.22l.62.54Zm107.81-.8L137.23,144l.61-.54,4.68,5.21Zm-109.13-.36-.66-.6,4.72-5.17.6.54Zm110.45-.82-4.75-5.14.59-.55,4.8,5.09Zm-111.76-.37-.64-.61L35.61,142l.59.55Zm113-.83-4.84-5.06.58-.56,4.9,5ZM30.15,146.5l-.63-.62,4.93-5,.58.57Zm115.58-.86-5-4.94.58-.58,5,4.9Zm-116.84-.39-.61-.62,5-4.87.57.59ZM147,144.39l-5.06-4.84.55-.58,5.12,4.78ZM27.66,144l-.6-.64,5.14-4.75.55.59Zm120.5-.89L143,138.37l.55-.6,5.21,4.68Zm-121.7-.41-.59-.66,5.24-4.64.54.6Zm122.89-.91-5.27-4.61.53-.61,5.31,4.56Zm-124.06-.41-.58-.67,5.34-4.53.52.61Zm125.2-.93-5.36-4.51.52-.62,5.4,4.46ZM24.15,140l-.56-.68L29,134.93l.51.62Zm127.46-.94-5.44-4.4.5-.63,5.5,4.33ZM23,138.65,22.5,138l5.52-4.3.5.64Zm129.68-1-5.54-4.28.49-.64,5.59,4.21ZM22,137.26l-.53-.7L27,132.37l.49.65Zm131.82-1-5.62-4.17.47-.64,5.68,4.09ZM20.9,135.84l-.51-.71,5.7-4.06.47.66Zm133.91-1-5.72-4,.46-.67,5.76,4ZM19.88,134.4l-.5-.72,5.79-3.94.46.67Zm135.94-1L150,129.47l.44-.66,5.85,3.84Zm-136.92-.45-.49-.74,5.88-3.8.44.67Zm137.9-1-5.89-3.78.44-.69,5.93,3.72Zm-138.86-.44-.47-.75,6-3.67.42.68Zm139.8-1.06-6-3.66.42-.69,6,3.59ZM17,130l-.45-.76,6-3.54.41.69Zm141.64-1.07-6-3.54.4-.69,6.09,3.46ZM16.1,128.45l-.44-.77,6.11-3.42.4.7Zm143.41-1.1L153.39,124l.39-.72,6.16,3.33Zm-144.28-.44-.42-.77L21,122.84l.39.71Zm145.11-1.12-6.19-3.27.37-.71,6.23,3.19Zm-145.94-.43-.4-.78,6.25-3.16.37.72Zm146.75-1.15-6.27-3.12.36-.73,6.29,3.06Zm-147.55-.43-.38-.79,6.31-3,.35.73Zm148.32-1.16-6.33-3,.34-.74,6.36,2.93Zm-149.08-.42-.37-.8,6.37-2.89.34.74ZM162.68,121l-6.39-2.85.33-.74,6.43,2.78Zm-150.55-.41-.35-.81L18.22,117l.32.73Zm151.25-1.22-6.46-2.71.31-.76,6.48,2.66ZM11.44,119l-.33-.81,6.49-2.62.31.75Zm152.62-1.24-6.51-2.57.3-.76,6.54,2.51Zm-153.28-.4-.31-.82L17,114l.29.76Zm153.91-1.26-6.57-2.42.28-.77,6.59,2.37Zm-154.54-.39-.3-.84,6.6-2.32.27.76Zm155.13-1.27-6.61-2.29.26-.77,6.64,2.22ZM9.57,114l-.28-.84L15.94,111l.25.76Zm156.28-1.28-6.66-2.15.24-.77,6.69,2.08ZM9,112.33l-.26-.85,6.7-2,.24.77ZM166.38,111l-6.71-2,.23-.79,6.73,1.94ZM8.51,110.64l-.24-.85L15,107.89l.22.78Zm158.36-1.31-6.75-1.85.21-.79,6.77,1.79ZM8,108.93l-.23-.85,6.78-1.74.21.78Zm159.29-1.31-6.79-1.7.19-.78,6.81,1.62Zm-159.73-.4-.21-.86,6.82-1.6.19.78Zm160.14-1.32-6.83-1.55.18-.79,6.84,1.48ZM7.18,105.5,7,104.63l6.85-1.44c.05.26.11.52.17.78Zm160.92-1.33-6.86-1.41.16-.79,6.87,1.33Zm-161.29-.4c-.06-.29-.12-.58-.17-.88l6.88-1.29q.07.39.15.79Zm161.63-1.35-6.89-1.24.14-.81,6.9,1.19ZM6.49,102l-.15-.87,6.9-1.16.14.8Zm162.25-1.32-6.91-1.13c0-.26.08-.53.12-.79l6.92,1C168.83,100.12,168.79,100.41,168.74,100.71ZM6.2,100.29l-.13-.87,6.93-1,.12.8ZM169,99l-6.93-1,.11-.8,6.94.89ZM5.94,98.54c0-.29-.08-.59-.11-.88l6.95-.85.1.8ZM169.23,97.2l-7-.82.09-.8,7,.75ZM5.73,96.78l-.09-.87,7-.71.09.81Zm163.69-1.34-7-.68c0-.26,0-.53.07-.79l7,.58C169.47,94.85,169.44,95.15,169.41,95.44ZM5.55,95l-.07-.88,7-.56.07.81Zm164-1.34-7-.53q0-.4.06-.8l7,.44C169.61,93.09,169.59,93.39,169.56,93.68ZM5.41,93.27l-.06-.88,7-.41.05.81Zm164.27-1.34-7-.39q0-.4,0-.8l7,.29C169.71,91.33,169.69,91.63,169.67,91.92ZM5.3,91.51q0-.44,0-.89l7-.25,0,.8Zm164.45-1.36-7-.22,0-.81,7,.14ZM5.24,89.74l0-.87,7-.12,0,.81Zm0-1.76V87.1l7,0v.81Zm164.58.14h-7v-.81l7-.07ZM12.22,86.32l-7-.11,0-.88,7,.18Zm150.56-.11,0-.81,7-.22,0,.88ZM12.26,84.7l-7-.25,0-.88,7,.33Zm150.46-.5,0-.81,7-.36,0,.88ZM12.33,83.08l-7-.4q0-.44.06-.89l7,.49Zm150.3-.5q0-.4-.06-.79l7-.53q0,.45.06.89ZM12.44,81.47l-7-.56L5.54,80l7,.62ZM162.51,81c0-.27,0-.53-.07-.79l7-.68c0,.3.06.59.08.89ZM12.59,79.86l-7-.7.09-.88,7,.78Zm149.77-.49-.09-.8,7-.83.1.88ZM12.77,78.25,5.82,77.4q.05-.44.11-.88l6.94.93Zm149.4-.49-.11-.8L169,76l.12.88ZM13,76.65l-6.93-1,.13-.87,6.92,1.07Zm149-.49-.13-.81,6.91-1.12.14.86ZM13.23,75.05,6.33,73.9,6.48,73l6.89,1.22Zm148.46-.48-.14-.81,6.88-1.26.15.86ZM13.51,73.46l-6.88-1.3q.08-.44.17-.87l6.86,1.38ZM161.39,73l-.16-.8,6.86-1.41.17.86ZM13.83,71.87,7,70.43l.19-.87L14,71.09Zm147.24-.48-.18-.79L167.71,69l.19.86ZM14.18,70.3,7.37,68.7l.21-.85,6.8,1.66Zm146.52-.48-.19-.79,6.79-1.72.21.86ZM14.57,68.72,7.79,67,8,66.13l6.76,1.81Zm145.74-.48-.21-.78,6.75-1.87.23.85ZM15,67.16,8.25,65.28l.24-.85,6.72,2Zm144.89-.48-.23-.77,6.71-2,.25.85ZM15.44,65.61l-6.7-2L9,62.73l6.68,2.1Zm144-.48-.24-.77,6.66-2.16.27.85ZM15.93,64.06,9.27,61.88,9.56,61l6.63,2.26Zm143-.46-.26-.76,6.61-2.3.29.84ZM16.45,62.52,9.84,60.2l.3-.84,6.58,2.4Zm141.94-.45-.28-.77,6.57-2.43.3.82ZM17,61l-6.55-2.46.32-.84,6.52,2.55Zm140.83-.44-.3-.76L164,57.23l.32.82ZM17.59,59.49l-6.5-2.61.33-.82,6.47,2.67Zm139.64-.44-.31-.74,6.45-2.72.34.82ZM18.21,58l-6.44-2.74.35-.81,6.41,2.81Zm138.4-.41-.33-.75L162.68,54l.35.8ZM18.86,56.5l-6.38-2.89.37-.81,6.35,3Zm137.09-.41-.34-.73,6.33-3,.37.8ZM19.55,55l-6.32-3,.39-.8,6.28,3.1Zm135.71-.39-.35-.72,6.26-3.14.39.79Zm-135-1.06L14,50.42l.41-.79,6.21,3.23Zm134.27-.39-.37-.71,6.19-3.26.41.79ZM21,52.14l-6.18-3.29.42-.78,6.14,3.36Zm132.78-.37-.39-.7,6.12-3.4.42.78Zm-132-1.05L15.68,47.3l.44-.77L22.19,50ZM153,50.36l-.4-.7,6-3.52.44.77Zm-130.41-1-6-3.55L17,45l6,3.62ZM152.2,49l-.42-.69,6-3.65.45.75Zm-128.76-1-5.95-3.69.47-.75,5.91,3.75Zm127.92-.34-.43-.68,5.89-3.79.47.75Zm-127.05-1-5.87-3.81.48-.74,5.84,3.87Zm126.17-.34-.44-.66,5.8-3.91.5.75Zm-125.28-1-5.79-3.94.5-.73,5.74,4Zm124.38-.32-.46-.65,5.72-4,.51.73Zm-123.46-1-5.7-4.07.51-.71,5.66,4.12Zm122.53-.32-.47-.65,5.63-4.15.52.72Zm-121.57-1L21.46,38.4l.53-.71,5.57,4.24Zm120.61-.3-.49-.64,5.54-4.27.54.71Zm-119.64-1L22.54,37l.55-.7,5.48,4.36ZM146.7,41l-.5-.62L151.66,36l.56.7ZM29.07,40,23.64,35.6l.56-.68,5.38,4.48Zm116.64-.28-.52-.63,5.36-4.51.56.67Zm-115.6-1-5.33-4.53.57-.67,5.29,4.59Zm114.56-.27-.54-.62,5.27-4.61.57.66ZM31.16,37.56l-5.23-4.65.59-.66L31.7,37Zm112.44-.27-.55-.6L148.21,32l.59.65ZM32.25,36.36,27.11,31.6l.6-.65,5.08,4.81Zm110.26-.26-.56-.6L147,30.67l.6.63ZM33.36,35.18l-5-4.86.62-.63,5,4.91Zm108-.26-.57-.58,5-4.94.62.63ZM34.5,34l-4.93-5,.63-.62,4.87,5Zm105.75-.26-.58-.57,4.85-5,.63.61ZM35.66,32.91l-4.82-5.08.64-.6,4.77,5.12Zm103.42-.25-.59-.55L143.22,27l.65.6ZM36.84,31.81l-4.71-5.18.65-.59,4.66,5.23Zm101-.25-.59-.53,4.63-5.25.67.6ZM38,30.73l-4.6-5.28.67-.57,4.55,5.32Zm98.62-.25-.61-.52,4.51-5.35.68.58Zm-97.39-.8-4.49-5.37.68-.56,4.43,5.42Zm96.15-.24-.62-.51,4.39-5.45.69.56Zm-94.9-.78-4.37-5.47.69-.55,4.31,5.51Zm93.65-.24-.63-.5,4.28-5.54.7.55ZM41.8,27.67,37.55,22.1l.7-.53,4.2,5.6Zm91.1-.23-.65-.49,4.17-5.62.7.53ZM43.1,26.7,39,21l.71-.52,4.07,5.69Zm88.5-.22-.66-.47,4-5.71.72.51Zm-87.19-.71L40.4,20l.72-.5,4,5.78Zm85.86-.23-.66-.45,3.92-5.8.74.51Zm-84.52-.69L41.85,19l.74-.49,3.82,5.86Zm83.18-.22-.68-.44,3.8-5.88.74.48ZM47.1,24l-3.76-5.9.75-.47,3.7,5.95Zm80.47-.21-.68-.42,3.66-6,.76.47Zm-79.1-.64-3.64-6,.76-.46,3.56,6Zm77.72-.21-.69-.41,3.54-6,.77.46Zm-76.33-.61-3.5-6.06.76-.44,3.44,6.1Zm74.94-.21-.71-.4,3.41-6.11.77.44ZM51.26,21.5l-3.38-6.13.78-.42L52,21.12Zm72.12-.2-.72-.39,3.28-6.19.78.42Zm-70.7-.57-3.25-6.2.79-.41,3.17,6.24Zm69.27-.19-.73-.37,3.14-6.26.79.4ZM54.11,20,51,13.73l.79-.39,3,6.31Zm66.39-.19-.73-.35,3-6.32.8.38Zm-64.93-.51-3-6.34.8-.37L56.3,19ZM119,19.12l-.74-.34,2.87-6.39.81.37Zm-62-.48-2.83-6.4.8-.35,2.78,6.43Zm60.53-.18-.76-.32,2.73-6.45.8.35ZM58.51,18l-2.69-6.46.81-.33,2.63,6.49Zm57.55-.18-.75-.3,2.59-6.5.82.33ZM60,17.39l-2.56-6.51.82-.32,2.5,6.54Zm54.54-.17-.75-.29,2.45-6.56.83.32Zm-53-.4L59.1,10.25l.82-.3,2.36,6.59ZM113,16.66l-.77-.27,2.3-6.61.83.29Zm-50-.38L60.77,9.66l.84-.28L63.8,16Zm48.46-.16-.77-.25,2.16-6.66.84.28Zm-46.92-.35L62.44,9.1l.85-.27,2,6.69Zm45.37-.15-.77-.24,2-6.71.85.26ZM66.12,15.3l-2-6.71L65,8.34l1.9,6.74Zm42.28-.14-.77-.22,1.86-6.75.85.24Zm-40.73-.3L65.83,8.1l.86-.23,1.75,6.78Zm39.17-.13-.78-.2,1.72-6.79.86.22Zm-37.6-.28-1.7-6.79.86-.21L70,14.26Zm36-.12-.78-.19,1.57-6.82.86.2Zm-34.47-.25L69.27,7.25l.86-.19L71.6,13.9Zm32.9-.11-.79-.17,1.43-6.85.86.18Zm-31.32-.23L71,6.88l.87-.17,1.32,6.87Zm29.72-.1-.79-.15L102.6,6.6l.88.17ZM74,13.43,72.73,6.54l.87-.15,1.17,6.9Zm26.54-.09-.79-.13,1.13-6.91.88.15Zm-24.95-.18-1.1-6.91.88-.14,1,6.93Zm23.36-.08-.8-.12,1-6.93.87.13Zm-21.77-.16L76.23,6l.87-.11L78,12.82Zm20.17-.07-.81-.1.84-7,.87.11Zm-18.56-.14-.8-7,.88-.1.73,7Zm16.95-.06-.8-.08.68-7,.88.09Zm-15.34-.11-.65-7,.89-.08.57,7Zm13.73,0-.81-.07.53-7,.88.07ZM82,12.42l-.51-7,.89-.06.42,7Zm10.51,0-.81,0,.39-7L93,5.4Zm-8.9-.06-.35-7,.88,0,.29,7Zm7.27,0-.8,0,.23-7,.89,0Zm-5.66,0-.21-7,.88,0,.13,7Zm4,0h-.8l.08-7,.89,0Zm-2.42,0-.06-7h.88v7Z" transform="translate(0 0)"/><g class="cls-3"><polygon class="cls-4" points="168.12 69.81 105.19 6.88 168.12 6.88 168.12 69.81"/><polygon class="cls-4" points="168.12 129.43 45.57 6.88 105.19 6.88 168.12 69.81 168.12 129.43"/><polygon class="cls-4" points="168.12 130.72 44.28 6.88 45.57 6.88 168.12 129.43 168.12 130.72"/><polygon class="cls-5" points="168.12 132.01 42.99 6.88 44.28 6.88 168.12 130.72 168.12 132.01"/><polygon class="cls-6" points="168.12 133.3 41.7 6.88 42.99 6.88 168.12 132.01 168.12 133.3"/><polygon class="cls-7" points="168.12 134.59 40.41 6.88 41.7 6.88 168.12 133.3 168.12 134.59"/><polygon class="cls-8" points="168.12 134.78 167.58 135.33 39.67 7.42 40.22 6.88 40.41 6.88 168.12 134.59 168.12 134.78"/><rect class="cls-9" x="102.85" y="-18.75" width="0.91" height="180.89" transform="translate(-20.44 94.05) rotate(-45)"/><rect class="cls-10" x="102.2" y="-18.1" width="0.91" height="180.89" transform="translate(-21.09 93.78) rotate(-45)"/><rect class="cls-11" x="101.56" y="-17.46" width="0.91" height="180.89" transform="translate(-21.73 93.51) rotate(-45)"/><rect class="cls-12" x="100.91" y="-16.81" width="0.91" height="180.89" transform="translate(-22.37 93.24) rotate(-45)"/><rect class="cls-13" x="100.27" y="-16.17" width="0.91" height="180.89" transform="translate(-23.02 92.98) rotate(-45)"/><rect class="cls-14" x="99.62" y="-15.52" width="0.91" height="180.89" transform="translate(-23.66 92.71) rotate(-45)"/><rect class="cls-15" x="98.98" y="-14.88" width="0.91" height="180.89" transform="translate(-24.31 92.44) rotate(-45)"/><rect class="cls-16" x="98.34" y="-14.24" width="0.91" height="180.89" transform="translate(-24.95 92.18) rotate(-45)"/><rect class="cls-17" x="97.69" y="-13.59" width="0.91" height="180.89" transform="translate(-25.6 91.91) rotate(-45)"/><rect class="cls-18" x="97.05" y="-12.95" width="0.91" height="180.89" transform="translate(-26.24 91.64) rotate(-45)"/><rect class="cls-19" x="96.4" y="-12.3" width="0.91" height="180.89" transform="translate(-26.89 91.38) rotate(-45)"/><rect class="cls-20" x="95.76" y="-11.66" width="0.91" height="180.89" transform="translate(-27.53 91.11) rotate(-45)"/><rect class="cls-21" x="95.11" y="-11.01" width="0.91" height="180.89" transform="translate(-28.17 90.84) rotate(-45)"/><rect class="cls-22" x="94.47" y="-10.37" width="0.91" height="180.89" transform="translate(-28.82 90.58) rotate(-45)"/><rect class="cls-23" x="93.83" y="-9.73" width="0.91" height="180.89" transform="translate(-29.46 90.31) rotate(-45)"/><rect class="cls-24" x="93.18" y="-9.08" width="0.91" height="180.89" transform="translate(-30.11 90.04) rotate(-45)"/><rect class="cls-25" x="92.54" y="-8.44" width="0.91" height="180.89" transform="translate(-30.75 89.77) rotate(-45)"/><rect class="cls-26" x="91.89" y="-7.79" width="0.91" height="180.89" transform="translate(-31.4 89.51) rotate(-45)"/><rect class="cls-27" x="91.25" y="-7.15" width="0.91" height="180.89" transform="translate(-32.04 89.24) rotate(-45)"/><rect class="cls-28" x="90.6" y="-6.5" width="0.91" height="180.89" transform="translate(-32.68 88.97) rotate(-45)"/><rect class="cls-29" x="89.96" y="-5.86" width="0.91" height="180.89" transform="translate(-33.33 88.71) rotate(-45)"/><rect class="cls-30" x="89.31" y="-5.22" width="0.91" height="180.89" transform="translate(-33.97 88.44) rotate(-45)"/><rect class="cls-31" x="88.67" y="-4.57" width="0.91" height="180.89" transform="translate(-34.62 88.17) rotate(-45)"/><rect class="cls-32" x="88.03" y="-3.93" width="0.91" height="180.89" transform="translate(-35.26 87.91) rotate(-45)"/><rect class="cls-33" x="87.38" y="-3.28" width="0.91" height="180.89" transform="translate(-35.91 87.64) rotate(-45)"/><rect class="cls-34" x="86.74" y="-2.64" width="0.91" height="180.89" transform="translate(-36.55 87.37) rotate(-45)"/><rect class="cls-35" x="86.09" y="-1.99" width="0.91" height="180.89" transform="translate(-37.2 87.11) rotate(-45)"/><rect class="cls-36" x="85.45" y="-1.35" width="0.91" height="180.89" transform="translate(-37.84 86.84) rotate(-45)"/><rect class="cls-37" x="84.8" y="-0.7" width="0.91" height="180.89" transform="translate(-38.48 86.57) rotate(-45)"/><rect class="cls-38" x="84.16" y="-0.06" width="0.91" height="180.89" transform="translate(-39.13 86.31) rotate(-45)"/><rect class="cls-39" x="83.52" y="0.58" width="0.91" height="180.89" transform="translate(-39.77 86.04) rotate(-45)"/><rect class="cls-40" x="82.87" y="1.23" width="0.91" height="180.89" transform="translate(-40.42 85.77) rotate(-45)"/><rect class="cls-41" x="82.23" y="1.87" width="0.91" height="180.89" transform="translate(-41.06 85.5) rotate(-45)"/><rect class="cls-42" x="81.58" y="2.52" width="0.91" height="180.89" transform="translate(-41.71 85.24) rotate(-45)"/><rect class="cls-43" x="80.94" y="3.16" width="0.91" height="180.89" transform="translate(-42.35 84.97) rotate(-45)"/><rect class="cls-44" x="80.29" y="3.81" width="0.91" height="180.89" transform="translate(-42.99 84.7) rotate(-45)"/><rect class="cls-45" x="79.65" y="4.45" width="0.91" height="180.89" transform="translate(-43.64 84.44) rotate(-45)"/><rect class="cls-46" x="79.01" y="5.09" width="0.91" height="180.89" transform="translate(-44.28 84.17) rotate(-45)"/><rect class="cls-47" x="78.36" y="5.74" width="0.91" height="180.89" transform="translate(-44.93 83.9) rotate(-45)"/><rect class="cls-48" x="77.72" y="6.38" width="0.91" height="180.89" transform="translate(-45.57 83.64) rotate(-45)"/><rect class="cls-49" x="77.07" y="7.03" width="0.91" height="180.89" transform="translate(-46.22 83.37) rotate(-45)"/><rect class="cls-50" x="76.43" y="7.67" width="0.91" height="180.89" transform="translate(-46.86 83.1) rotate(-45)"/><rect class="cls-51" x="75.78" y="8.32" width="0.91" height="180.89" transform="translate(-47.5 82.84) rotate(-45)"/><rect class="cls-52" x="75.14" y="8.96" width="0.91" height="180.89" transform="translate(-48.15 82.57) rotate(-45)"/><rect class="cls-53" x="74.49" y="9.61" width="0.91" height="180.89" transform="translate(-48.79 82.3) rotate(-45)"/><rect class="cls-54" x="73.85" y="10.25" width="0.91" height="180.89" transform="translate(-49.44 82.03) rotate(-45)"/><rect class="cls-55" x="73.21" y="10.89" width="0.91" height="180.89" transform="translate(-50.08 81.77) rotate(-45)"/><rect class="cls-56" x="72.56" y="11.54" width="0.91" height="180.89" transform="translate(-50.73 81.5) rotate(-45)"/><rect class="cls-57" x="71.92" y="12.18" width="0.91" height="180.89" transform="translate(-51.37 81.23) rotate(-45)"/><rect class="cls-58" x="71.27" y="12.83" width="0.91" height="180.89" transform="translate(-52.02 80.97) rotate(-45)"/><polygon class="cls-59" points="135.36 167.55 134.78 168.12 134.65 168.12 6.88 40.35 6.88 40.22 7.45 39.64 135.36 167.55"/><polygon class="cls-60" points="133.36 168.12 6.88 41.64 6.88 40.35 134.65 168.12 133.36 168.12"/><polygon class="cls-61" points="132.07 168.12 6.88 42.93 6.88 41.64 133.36 168.12 132.07 168.12"/><polygon class="cls-62" points="130.78 168.12 6.88 44.22 6.88 42.93 132.07 168.12 130.78 168.12"/><polygon class="cls-63" points="129.49 168.12 6.88 45.51 6.88 44.22 130.78 168.12 129.49 168.12"/><polygon class="cls-64" points="128.2 168.12 6.88 46.8 6.88 45.51 129.49 168.12 128.2 168.12"/><polygon class="cls-65" points="126.92 168.12 6.88 48.09 6.88 46.8 128.2 168.12 126.92 168.12"/><polygon class="cls-66" points="125.63 168.12 6.88 49.37 6.88 48.09 126.92 168.12 125.63 168.12"/><polygon class="cls-67" points="124.34 168.12 6.88 50.66 6.88 49.37 125.63 168.12 124.34 168.12"/><polygon class="cls-68" points="123.05 168.12 6.88 51.95 6.88 50.66 124.34 168.12 123.05 168.12"/><polygon class="cls-69" points="121.76 168.12 6.88 53.24 6.88 51.95 123.05 168.12 121.76 168.12"/><polygon class="cls-70" points="120.47 168.12 6.88 54.53 6.88 53.24 121.76 168.12 120.47 168.12"/><polygon class="cls-71" points="119.18 168.12 6.88 55.82 6.88 54.53 120.47 168.12 119.18 168.12"/><polygon class="cls-71" points="117.89 168.12 6.88 57.11 6.88 55.82 119.18 168.12 117.89 168.12"/><polygon class="cls-72" points="116.61 168.12 6.88 58.39 6.88 57.11 117.89 168.12 116.61 168.12"/><polygon class="cls-73" points="115.32 168.12 6.88 59.68 6.88 58.39 116.61 168.12 115.32 168.12"/><polygon class="cls-74" points="114.03 168.12 6.88 60.97 6.88 59.68 115.32 168.12 114.03 168.12"/><polygon class="cls-75" points="112.74 168.12 6.88 62.26 6.88 60.97 114.03 168.12 112.74 168.12"/><polygon class="cls-75" points="111.45 168.12 6.88 63.55 6.88 62.26 112.74 168.12 111.45 168.12"/><polygon class="cls-76" points="110.16 168.12 6.88 64.84 6.88 63.55 111.45 168.12 110.16 168.12"/><polygon class="cls-77" points="108.87 168.12 6.88 66.13 6.88 64.84 110.16 168.12 108.87 168.12"/><polygon class="cls-78" points="107.58 168.12 6.88 67.42 6.88 66.13 108.87 168.12 107.58 168.12"/><polygon class="cls-79" points="106.3 168.12 6.88 68.7 6.88 67.42 107.58 168.12 106.3 168.12"/><polygon class="cls-80" points="105.01 168.12 6.88 69.99 6.88 68.7 106.3 168.12 105.01 168.12"/><polygon class="cls-80" points="103.72 168.12 6.88 71.28 6.88 69.99 105.01 168.12 103.72 168.12"/><polygon class="cls-81" points="102.43 168.12 6.88 72.57 6.88 71.28 103.72 168.12 102.43 168.12"/><polygon class="cls-82" points="101.14 168.12 6.88 73.86 6.88 72.57 102.43 168.12 101.14 168.12"/><polygon class="cls-83" points="99.85 168.12 6.88 75.15 6.88 73.86 101.14 168.12 99.85 168.12"/><polygon class="cls-84" points="98.56 168.12 6.88 76.44 6.88 75.15 99.85 168.12 98.56 168.12"/><polygon class="cls-84" points="97.28 168.12 6.88 77.72 6.88 76.44 98.56 168.12 97.28 168.12"/><polygon class="cls-85" points="95.99 168.12 6.88 79.01 6.88 77.72 97.28 168.12 95.99 168.12"/><polygon class="cls-86" points="94.7 168.12 6.88 80.3 6.88 79.01 95.99 168.12 94.7 168.12"/><polygon class="cls-87" points="93.41 168.12 6.88 81.59 6.88 80.3 94.7 168.12 93.41 168.12"/><polygon class="cls-87" points="92.12 168.12 6.88 82.88 6.88 81.59 93.41 168.12 92.12 168.12"/><polygon class="cls-88" points="90.83 168.12 6.88 84.17 6.88 82.88 92.12 168.12 90.83 168.12"/><polygon class="cls-88" points="89.54 168.12 6.88 85.46 6.88 84.17 90.83 168.12 89.54 168.12"/><polygon class="cls-89" points="88.25 168.12 6.88 86.75 6.88 85.46 89.54 168.12 88.25 168.12"/><polygon class="cls-89" points="86.97 168.12 6.88 88.03 6.88 86.75 88.25 168.12 86.97 168.12"/><polygon class="cls-90" points="85.68 168.12 6.88 89.32 6.88 88.03 86.97 168.12 85.68 168.12"/><polygon class="cls-90" points="84.39 168.12 6.88 90.61 6.88 89.32 85.68 168.12 84.39 168.12"/><polygon class="cls-90" points="83.1 168.12 6.88 91.9 6.88 90.61 84.39 168.12 83.1 168.12"/><polygon class="cls-91" points="81.81 168.12 6.88 93.19 6.88 91.9 83.1 168.12 81.81 168.12"/><polygon class="cls-91" points="80.52 168.12 6.88 94.48 6.88 93.19 81.81 168.12 80.52 168.12"/><polygon class="cls-91" points="79.23 168.12 6.88 95.77 6.88 94.48 80.52 168.12 79.23 168.12"/><polygon class="cls-92" points="77.94 168.12 6.88 97.06 6.88 95.77 79.23 168.12 77.94 168.12"/><polygon class="cls-92" points="76.66 168.12 6.88 98.34 6.88 97.06 77.94 168.12 76.66 168.12"/><polygon class="cls-93" points="75.37 168.12 6.88 99.63 6.88 98.34 76.66 168.12 75.37 168.12"/><polygon class="cls-93" points="74.08 168.12 6.88 100.92 6.88 99.63 75.37 168.12 74.08 168.12"/><polygon class="cls-94" points="72.79 168.12 6.88 102.21 6.88 100.92 74.08 168.12 72.79 168.12"/><polygon class="cls-95" points="71.5 168.12 6.88 103.5 6.88 102.21 72.79 168.12 71.5 168.12"/><polygon class="cls-95" points="70.21 168.12 6.88 104.79 6.88 103.5 71.5 168.12 70.21 168.12"/><polygon class="cls-95" points="68.92 168.12 6.88 106.08 6.88 104.79 70.21 168.12 68.92 168.12"/><polygon class="cls-96" points="67.64 168.12 6.88 107.36 6.88 106.08 68.92 168.12 67.64 168.12"/><polygon class="cls-96" points="66.35 168.12 6.88 108.65 6.88 107.36 67.64 168.12 66.35 168.12"/><polygon class="cls-96" points="65.06 168.12 6.88 109.94 6.88 108.65 66.35 168.12 65.06 168.12"/><polygon class="cls-96" points="63.77 168.12 6.88 111.23 6.88 109.94 65.06 168.12 63.77 168.12"/><polygon class="cls-96" points="62.48 168.12 6.88 112.52 6.88 111.23 63.77 168.12 62.48 168.12"/><polygon class="cls-96" points="61.19 168.12 6.88 113.81 6.88 112.52 62.48 168.12 61.19 168.12"/><polygon class="cls-96" points="59.9 168.12 6.88 115.1 6.88 113.81 61.19 168.12 59.9 168.12"/><polygon class="cls-97" points="58.61 168.12 6.88 116.39 6.88 115.1 59.9 168.12 58.61 168.12"/><polygon class="cls-97" points="57.33 168.12 6.88 117.67 6.88 116.39 58.61 168.12 57.33 168.12"/><polygon class="cls-97" points="56.04 168.12 6.88 118.96 6.88 117.67 57.33 168.12 56.04 168.12"/><polygon class="cls-97" points="54.75 168.12 6.88 120.25 6.88 118.96 56.04 168.12 54.75 168.12"/><polygon class="cls-97" points="53.46 168.12 6.88 121.54 6.88 120.25 54.75 168.12 53.46 168.12"/><polygon class="cls-97" points="52.17 168.12 6.88 122.83 6.88 121.54 53.46 168.12 52.17 168.12"/><polygon class="cls-97" points="50.88 168.12 6.88 124.12 6.88 122.83 52.17 168.12 50.88 168.12"/><polygon class="cls-97" points="49.59 168.12 6.88 125.41 6.88 124.12 50.88 168.12 49.59 168.12"/><polygon class="cls-97" points="48.3 168.12 6.88 126.7 6.88 125.41 49.59 168.12 48.3 168.12"/><polygon class="cls-97" points="47.02 168.12 6.88 127.98 6.88 126.7 48.3 168.12 47.02 168.12"/><polygon class="cls-97" points="45.73 168.12 6.88 129.27 6.88 127.98 47.02 168.12 45.73 168.12"/><polygon class="cls-97" points="44.44 168.12 6.88 130.56 6.88 129.27 45.73 168.12 44.44 168.12"/><polygon class="cls-97" points="6.88 130.56 44.44 168.12 6.88 168.12 6.88 130.56"/><polygon class="cls-4" points="175 76.69 98.31 0 175 0 175 76.69"/><polygon class="cls-4" points="175 136.31 38.69 0 98.31 0 175 76.69 175 136.31"/><polygon class="cls-4" points="175 137.6 37.4 0 38.69 0 175 136.31 175 137.6"/><polygon class="cls-5" points="175 138.58 174.84 138.73 36.27 0.15 36.42 0 37.4 0 175 137.6 175 138.58"/><rect class="cls-6" x="104.78" y="-28.22" width="0.91" height="195.98" transform="translate(-18.51 94.85) rotate(-45)"/><rect class="cls-7" x="104.13" y="-27.58" width="0.91" height="195.98" transform="translate(-19.15 94.58) rotate(-45)"/><rect class="cls-8" x="103.49" y="-26.93" width="0.91" height="195.98" transform="translate(-19.8 94.31) rotate(-45)"/><rect class="cls-9" x="102.85" y="-26.29" width="0.91" height="195.98" transform="translate(-20.44 94.05) rotate(-45)"/><rect class="cls-10" x="102.2" y="-25.65" width="0.91" height="195.98" transform="translate(-21.09 93.78) rotate(-45)"/><rect class="cls-11" x="101.56" y="-25" width="0.91" height="195.98" transform="translate(-21.73 93.51) rotate(-45)"/><rect class="cls-12" x="100.91" y="-24.36" width="0.91" height="195.98" transform="translate(-22.38 93.24) rotate(-45)"/><rect class="cls-13" x="100.27" y="-23.71" width="0.91" height="195.98" transform="translate(-23.02 92.98) rotate(-45)"/><rect class="cls-14" x="99.62" y="-23.07" width="0.91" height="195.98" transform="translate(-23.66 92.71) rotate(-45)"/><rect class="cls-15" x="98.98" y="-22.42" width="0.91" height="195.98" transform="translate(-24.31 92.44) rotate(-45)"/><rect class="cls-16" x="98.34" y="-21.78" width="0.91" height="195.98" transform="translate(-24.95 92.18) rotate(-45)"/><rect class="cls-17" x="97.69" y="-21.13" width="0.91" height="195.98" transform="translate(-25.6 91.91) rotate(-45)"/><rect class="cls-18" x="97.05" y="-20.49" width="0.91" height="195.98" transform="translate(-26.24 91.64) rotate(-45)"/><rect class="cls-19" x="96.4" y="-19.85" width="0.91" height="195.98" transform="translate(-26.89 91.38) rotate(-45)"/><rect class="cls-20" x="95.76" y="-19.2" width="0.91" height="195.98" transform="translate(-27.53 91.11) rotate(-45)"/><rect class="cls-21" x="95.11" y="-18.56" width="0.91" height="195.98" transform="translate(-28.17 90.84) rotate(-45)"/><rect class="cls-22" x="94.47" y="-17.91" width="0.91" height="195.98" transform="translate(-28.82 90.58) rotate(-45)"/><rect class="cls-23" x="93.83" y="-17.27" width="0.91" height="195.98" transform="translate(-29.46 90.31) rotate(-45)"/><rect class="cls-24" x="93.18" y="-16.62" width="0.91" height="195.98" transform="translate(-30.11 90.04) rotate(-45)"/><rect class="cls-25" x="92.54" y="-15.98" width="0.91" height="195.98" transform="translate(-30.75 89.78) rotate(-45)"/><rect class="cls-26" x="91.89" y="-15.34" width="0.91" height="195.98" transform="translate(-31.4 89.51) rotate(-45)"/><rect class="cls-27" x="91.25" y="-14.69" width="0.91" height="195.98" transform="translate(-32.04 89.24) rotate(-45)"/><rect class="cls-28" x="90.6" y="-14.05" width="0.91" height="195.98" transform="translate(-32.68 88.97) rotate(-45)"/><rect class="cls-29" x="89.96" y="-13.4" width="0.91" height="195.98" transform="translate(-33.33 88.71) rotate(-45)"/><rect class="cls-30" x="89.31" y="-12.76" width="0.91" height="195.98" transform="translate(-33.97 88.44) rotate(-45)"/><rect class="cls-31" x="88.67" y="-12.11" width="0.91" height="195.98" transform="translate(-34.62 88.17) rotate(-45)"/><rect class="cls-32" x="88.03" y="-11.47" width="0.91" height="195.98" transform="translate(-35.26 87.91) rotate(-45)"/><rect class="cls-33" x="87.38" y="-10.83" width="0.91" height="195.98" transform="translate(-35.91 87.64) rotate(-45)"/><rect class="cls-34" x="86.74" y="-10.18" width="0.91" height="195.98" transform="translate(-36.55 87.37) rotate(-45)"/><rect class="cls-35" x="86.09" y="-9.54" width="0.91" height="195.98" transform="translate(-37.2 87.11) rotate(-45)"/><rect class="cls-36" x="85.45" y="-8.89" width="0.91" height="195.98" transform="translate(-37.84 86.84) rotate(-45)"/><rect class="cls-37" x="84.8" y="-8.25" width="0.91" height="195.98" transform="translate(-38.48 86.57) rotate(-45)"/><rect class="cls-38" x="84.16" y="-7.6" width="0.91" height="195.98" transform="translate(-39.13 86.31) rotate(-45)"/><rect class="cls-39" x="83.52" y="-6.96" width="0.91" height="195.98" transform="translate(-39.77 86.04) rotate(-45)"/><rect class="cls-40" x="82.87" y="-6.31" width="0.91" height="195.98" transform="translate(-40.42 85.77) rotate(-45)"/><rect class="cls-41" x="82.23" y="-5.67" width="0.91" height="195.98" transform="translate(-41.06 85.5) rotate(-45)"/><rect class="cls-42" x="81.58" y="-5.03" width="0.91" height="195.98" transform="translate(-41.71 85.24) rotate(-45)"/><rect class="cls-43" x="80.94" y="-4.38" width="0.91" height="195.98" transform="translate(-42.35 84.97) rotate(-45)"/><rect class="cls-44" x="80.29" y="-3.74" width="0.91" height="195.98" transform="translate(-42.99 84.7) rotate(-45)"/><rect class="cls-45" x="79.65" y="-3.09" width="0.91" height="195.98" transform="translate(-43.64 84.44) rotate(-45)"/><rect class="cls-46" x="79.01" y="-2.45" width="0.91" height="195.98" transform="translate(-44.28 84.17) rotate(-45)"/><rect class="cls-47" x="78.36" y="-1.8" width="0.91" height="195.98" transform="translate(-44.93 83.9) rotate(-45)"/><rect class="cls-48" x="77.72" y="-1.16" width="0.91" height="195.98" transform="translate(-45.57 83.64) rotate(-45)"/><rect class="cls-49" x="77.07" y="-0.52" width="0.91" height="195.98" transform="translate(-46.22 83.37) rotate(-45)"/><rect class="cls-50" x="76.43" y="0.13" width="0.91" height="195.98" transform="translate(-46.86 83.1) rotate(-45)"/><rect class="cls-51" x="75.78" y="0.77" width="0.91" height="195.98" transform="translate(-47.5 82.84) rotate(-45)"/><rect class="cls-52" x="75.14" y="1.42" width="0.91" height="195.98" transform="translate(-48.15 82.57) rotate(-45)"/><rect class="cls-53" x="74.49" y="2.06" width="0.91" height="195.98" transform="translate(-48.79 82.3) rotate(-45)"/><rect class="cls-54" x="73.85" y="2.71" width="0.91" height="195.98" transform="translate(-49.44 82.03) rotate(-45)"/><rect class="cls-55" x="73.21" y="3.35" width="0.91" height="195.98" transform="translate(-50.08 81.77) rotate(-45)"/><rect class="cls-56" x="72.56" y="3.99" width="0.91" height="195.98" transform="translate(-50.73 81.5) rotate(-45)"/><rect class="cls-57" x="71.92" y="4.64" width="0.91" height="195.98" transform="translate(-51.37 81.23) rotate(-45)"/><rect class="cls-58" x="71.27" y="5.28" width="0.91" height="195.98" transform="translate(-52.02 80.97) rotate(-45)"/><rect class="cls-59" x="70.63" y="5.93" width="0.91" height="195.98" transform="translate(-52.66 80.7) rotate(-45)"/><rect class="cls-60" x="69.98" y="6.57" width="0.91" height="195.98" transform="translate(-53.3 80.43) rotate(-45)"/><rect class="cls-61" x="69.34" y="7.22" width="0.91" height="195.98" transform="translate(-53.95 80.17) rotate(-45)"/><polygon class="cls-62" points="138.76 174.81 138.58 175 137.66 175 0 37.34 0 36.42 0.18 36.24 138.76 174.81"/><polygon class="cls-63" points="136.37 175 0 38.63 0 37.34 137.66 175 136.37 175"/><polygon class="cls-64" points="135.08 175 0 39.92 0 38.63 136.37 175 135.08 175"/><polygon class="cls-65" points="133.79 175 0 41.21 0 39.92 135.08 175 133.79 175"/><polygon class="cls-66" points="132.5 175 0 42.5 0 41.21 133.79 175 132.5 175"/><polygon class="cls-67" points="131.21 175 0 43.79 0 42.5 132.5 175 131.21 175"/><polygon class="cls-68" points="129.93 175 0 45.08 0 43.79 131.21 175 129.93 175"/><polygon class="cls-69" points="128.64 175 0 46.36 0 45.08 129.93 175 128.64 175"/><polygon class="cls-70" points="127.35 175 0 47.65 0 46.36 128.64 175 127.35 175"/><polygon class="cls-71" points="126.06 175 0 48.94 0 47.65 127.35 175 126.06 175"/><polygon class="cls-71" points="124.77 175 0 50.23 0 48.94 126.06 175 124.77 175"/><polygon class="cls-72" points="123.48 175 0 51.52 0 50.23 124.77 175 123.48 175"/><polygon class="cls-73" points="122.19 175 0 52.81 0 51.52 123.48 175 122.19 175"/><polygon class="cls-74" points="120.9 175 0 54.1 0 52.81 122.19 175 120.9 175"/><polygon class="cls-75" points="119.62 175 0 55.38 0 54.1 120.9 175 119.62 175"/><polygon class="cls-75" points="118.33 175 0 56.67 0 55.38 119.62 175 118.33 175"/><polygon class="cls-76" points="117.04 175 0 57.96 0 56.67 118.33 175 117.04 175"/><polygon class="cls-77" points="115.75 175 0 59.25 0 57.96 117.04 175 115.75 175"/><polygon class="cls-78" points="114.46 175 0 60.54 0 59.25 115.75 175 114.46 175"/><polygon class="cls-79" points="113.17 175 0 61.83 0 60.54 114.46 175 113.17 175"/><polygon class="cls-80" points="111.88 175 0 63.12 0 61.83 113.17 175 111.88 175"/><polygon class="cls-80" points="110.59 175 0 64.41 0 63.12 111.88 175 110.59 175"/><polygon class="cls-81" points="109.31 175 0 65.69 0 64.41 110.59 175 109.31 175"/><polygon class="cls-82" points="108.02 175 0 66.98 0 65.69 109.31 175 108.02 175"/><polygon class="cls-83" points="106.73 175 0 68.27 0 66.98 108.02 175 106.73 175"/><polygon class="cls-84" points="105.44 175 0 69.56 0 68.27 106.73 175 105.44 175"/><polygon class="cls-84" points="104.15 175 0 70.85 0 69.56 105.44 175 104.15 175"/><polygon class="cls-85" points="102.86 175 0 72.14 0 70.85 104.15 175 102.86 175"/><polygon class="cls-86" points="101.57 175 0 73.43 0 72.14 102.86 175 101.57 175"/><polygon class="cls-87" points="100.28 175 0 74.72 0 73.43 101.57 175 100.28 175"/><polygon class="cls-87" points="99 175 0 76 0 74.72 100.28 175 99 175"/><polygon class="cls-88" points="97.71 175 0 77.29 0 76 99 175 97.71 175"/><polygon class="cls-88" points="96.42 175 0 78.58 0 77.29 97.71 175 96.42 175"/><polygon class="cls-89" points="95.13 175 0 79.87 0 78.58 96.42 175 95.13 175"/><polygon class="cls-89" points="93.84 175 0 81.16 0 79.87 95.13 175 93.84 175"/><polygon class="cls-90" points="92.55 175 0 82.45 0 81.16 93.84 175 92.55 175"/><polygon class="cls-90" points="91.26 175 0 83.74 0 82.45 92.55 175 91.26 175"/><polygon class="cls-90" points="89.97 175 0 85.03 0 83.74 91.26 175 89.97 175"/><polygon class="cls-91" points="88.69 175 0 86.31 0 85.03 89.97 175 88.69 175"/><polygon class="cls-91" points="87.4 175 0 87.6 0 86.31 88.69 175 87.4 175"/><polygon class="cls-91" points="86.11 175 0 88.89 0 87.6 87.4 175 86.11 175"/><polygon class="cls-92" points="84.82 175 0 90.18 0 88.89 86.11 175 84.82 175"/><polygon class="cls-92" points="83.53 175 0 91.47 0 90.18 84.82 175 83.53 175"/><polygon class="cls-93" points="82.24 175 0 92.76 0 91.47 83.53 175 82.24 175"/><polygon class="cls-93" points="80.95 175 0 94.05 0 92.76 82.24 175 80.95 175"/><polygon class="cls-94" points="79.67 175 0 95.33 0 94.05 80.95 175 79.67 175"/><polygon class="cls-95" points="78.38 175 0 96.62 0 95.33 79.67 175 78.38 175"/><polygon class="cls-95" points="77.09 175 0 97.91 0 96.62 78.38 175 77.09 175"/><polygon class="cls-95" points="75.8 175 0 99.2 0 97.91 77.09 175 75.8 175"/><polygon class="cls-96" points="74.51 175 0 100.49 0 99.2 75.8 175 74.51 175"/><polygon class="cls-96" points="73.22 175 0 101.78 0 100.49 74.51 175 73.22 175"/><polygon class="cls-96" points="71.93 175 0 103.07 0 101.78 73.22 175 71.93 175"/><polygon class="cls-96" points="70.64 175 0 104.36 0 103.07 71.93 175 70.64 175"/><polygon class="cls-96" points="69.36 175 0 105.64 0 104.36 70.64 175 69.36 175"/><polygon class="cls-96" points="68.07 175 0 106.93 0 105.64 69.36 175 68.07 175"/><polygon class="cls-96" points="66.78 175 0 108.22 0 106.93 68.07 175 66.78 175"/><polygon class="cls-97" points="65.49 175 0 109.51 0 108.22 66.78 175 65.49 175"/><polygon class="cls-97" points="64.2 175 0 110.8 0 109.51 65.49 175 64.2 175"/><polygon class="cls-97" points="62.91 175 0 112.09 0 110.8 64.2 175 62.91 175"/><polygon class="cls-97" points="61.62 175 0 113.38 0 112.09 62.91 175 61.62 175"/><polygon class="cls-97" points="60.34 175 0 114.67 0 113.38 61.62 175 60.34 175"/><polygon class="cls-97" points="59.05 175 0 115.95 0 114.67 60.34 175 59.05 175"/><polygon class="cls-97" points="57.76 175 0 117.24 0 115.95 59.05 175 57.76 175"/><polygon class="cls-97" points="56.47 175 0 118.53 0 117.24 57.76 175 56.47 175"/><polygon class="cls-97" points="55.18 175 0 119.82 0 118.53 56.47 175 55.18 175"/><polygon class="cls-97" points="53.89 175 0 121.11 0 119.82 55.18 175 53.89 175"/><polygon class="cls-97" points="52.6 175 0 122.4 0 121.11 53.89 175 52.6 175"/><polygon class="cls-97" points="51.31 175 0 123.69 0 122.4 52.6 175 51.31 175"/><polygon class="cls-97" points="0 123.69 51.31 175 0 175 0 123.69"/></g></svg>