<svg id="Layer_1" data-name="Layer 1" xmlns="http://www.w3.org/2000/svg" viewBox="0 0 234.57 55"><defs><style>.cls-1{fill:#00a99d;}</style></defs><title>logo</title><path class="cls-1" d="M32.15,19.51a3,3,0,0,1,1.48.24,1.35,1.35,0,0,0,1.45.31c0-1.53,0-2.24-1.28-2.24S31.71,19.68,32.15,19.51Z"/><path class="cls-1" d="M49.19,17c-.1,0-.24,0-.34,0a2.63,2.63,0,0,0-.47.07,1.89,1.89,0,0,1,.3,1.8A1.78,1.78,0,0,1,46.36,20a1.87,1.87,0,0,1-1-1,5.18,5.18,0,0,0-1.08,3.16,5,5,0,0,0,4.93,5.1,4.94,4.94,0,0,0,4-2.18,5.3,5.3,0,0,0,.88-2.89A5,5,0,0,0,49.19,17Z"/><path class="cls-1" d="M65.89,19.55a13,13,0,0,0-1.62.14.63.63,0,0,1-.07-.24c-.07-.2-.1-.41-.17-.61-.1-.41-.27-.82-.4-1.22s-.3-.78-.47-1.19-.3-.78-.51-1.16-.37-.75-.57-1.12-.4-.71-.61-1.09S61,12.34,60.8,12l-.71-1c-.27-.34-.51-.68-.78-1s-.54-.65-.81-1-.57-.61-.88-.88a10.8,10.8,0,0,1-.88-.88c-.3-.31-.64-.54-.94-.82s-.67-.51-1-.78a11.36,11.36,0,0,0-1-.71c-.37-.24-.67-.48-1-.68s-.71-.44-1.08-.65L50.54,3a12.53,12.53,0,0,0-1.18-.54c-.4-.17-.81-.34-1.21-.48s-.81-.31-1.25-.44-.84-.27-1.25-.37S44.77,1,44.37.85L43.08.54c-.4-.1-.88-.14-1.32-.24L40.42.14A9.47,9.47,0,0,0,39,0c-.44,0-.88,0-1.35,0h-.2C22.77.07,10.76,10.61,10,24.71c0,.34,0,.68,0,1v.48a7.74,7.74,0,0,0,0,.88c0,.27,0,.51,0,.75H7.52a5,5,0,0,0-.34-.75,3.33,3.33,0,0,0-.57-.78,4.19,4.19,0,0,0-.74-.61,8,8,0,0,0-.94-.44,3.53,3.53,0,0,0-1-.14H3.74a3.8,3.8,0,0,0-2,.68,5.14,5.14,0,0,0-1,1.05,3.6,3.6,0,0,0-.67,2V29a5.29,5.29,0,0,0,.13,1.05,3.06,3.06,0,0,0,.44,1,2.67,2.67,0,0,0,.61.75,2.58,2.58,0,0,0,.78.58,5,5,0,0,0,1,.41,3,3,0,0,0,.94.1c.1,0,.17,0,.27,0h.07a3.79,3.79,0,0,0,3.27-2.45h2.77s.1.71.13.78c.07.27.1.51.17.78.1.51.27,1.05.4,1.56a31.6,31.6,0,0,0,1.08,3A31.22,31.22,0,0,0,13.5,39.3a25.27,25.27,0,0,0,1.79,2.58,26.26,26.26,0,0,0,2.23,2.52c.57.58,1.21,1.12,1.82,1.63.37.31.74.58,1.11.85s.78.54,1.18.82.84.51,1.25.75.84.48,1.28.68.88.44,1.35.65.94.41,1.42.58l1.48.51c.4.14.84.27,1.25.37l.3.1c.51.14,1,.31,1.59.44s1.08.24,1.65.31a2,2,0,0,0,.47.07,3.52,3.52,0,0,0,.47,1,4.13,4.13,0,0,0,1,1.05,2.81,2.81,0,0,0,.4.27s0,0,.07,0a3.64,3.64,0,0,0,1.82.48,3.91,3.91,0,0,0,1.28-.24,2.83,2.83,0,0,0,.47-.2.12.12,0,0,0,.07,0l.17-.1a3.77,3.77,0,0,0,1.72-2.21.13.13,0,0,1,0-.1s0-.07,0-.1a3.17,3.17,0,0,0,.13-1,3.88,3.88,0,0,0-1.25-2.89,4,4,0,0,0-1.32-.78,0,0,0,0,1,0,0V40.59h-2a16,16,0,0,1-1.79-.2c-.54-.1-1.08-.24-1.62-.37a8.08,8.08,0,0,1-1.45-.51,12.54,12.54,0,0,1-1.35-.68A9.59,9.59,0,0,1,29.25,38c-.4-.27-.78-.58-1.11-.85s-.67-.65-1-1a9.14,9.14,0,0,1-.91-1.09q-.4-.56-.81-1.22a9.78,9.78,0,0,1-.67-1.33,12.52,12.52,0,0,1-.51-1.46c-.07-.24-.1-.48-.17-.68H37.82V27.87H23.75v-.31a10,10,0,0,1,.3-2.28,10.67,10.67,0,0,1,.64-2,13.23,13.23,0,0,1,6.85-6.9,15.34,15.34,0,0,1,2.09-.75,18.09,18.09,0,0,1,2.43-.44c.37,0,.78-.07,1.15-.07h1.42s.1-.48.13-.68c0,0,0-.07,0-.1a3.2,3.2,0,0,1,.2-.51,5.15,5.15,0,0,1,.3-.61c0-.1.1-.14.1-.24a.49.49,0,0,0,.07-.1s0,0,0-.07,0,0,0-.07A7.55,7.55,0,0,1,43.22,10a10.52,10.52,0,0,1,2.67-.68A10.75,10.75,0,0,1,48,9.18a3.44,3.44,0,0,1,.57,0c.44,0,.88.07,1.28.14a14.11,14.11,0,0,1,1.62.41,12.73,12.73,0,0,1,1.42.61,11.06,11.06,0,0,1,1.25.75,9.83,9.83,0,0,1,1.11.88c.34.31.67.65,1,1a14.08,14.08,0,0,1,.91,1.09A12.38,12.38,0,0,1,58,15.26c.27.44.51.88.71,1.26a12.81,12.81,0,0,1,.64,1.39c.2.51.37,1,.51,1.46s.2.75.27,1.12.13.78.24,1.19a8.87,8.87,0,0,0-3.14,6.73,8.7,8.7,0,1,0,17.41,0A8.85,8.85,0,0,0,65.89,19.55ZM2.29,29a1.59,1.59,0,1,1,1.59,1.6A1.59,1.59,0,0,1,2.29,29ZM39,51.16a1.59,1.59,0,1,1-1.59-1.6A1.61,1.61,0,0,1,39,51.16ZM43.42,5.64a12.57,12.57,0,0,0-2.26.88,11.09,11.09,0,0,0-4.28,4.35c-.47.88-.71,1.5-.78,1.63v0l-1,.1c-.57.1-1.11.17-1.65.31a11.5,11.5,0,0,0-1.92.58A14.31,14.31,0,0,0,29,14.72a16.14,16.14,0,0,0-5.9,6A13.46,13.46,0,0,0,22,23.18a12.65,12.65,0,0,0-.47,1.87c-.1.51-.17,1.05-.24,1.6s-.07.82-.07,1.22v.24A16.8,16.8,0,0,0,21.39,30c.1.58.2,1.12.34,1.67s.3,1,.47,1.5a12.8,12.8,0,0,0,.64,1.39c.24.44.47.85.71,1.26A9.5,9.5,0,0,0,24.39,37c.3.37.61.71.91,1.05a13.9,13.9,0,0,0,1,1,13.62,13.62,0,0,0,1.08.88q.56.41,1.21.82c.44.27.84.48,1.28.71a12.28,12.28,0,0,0,1.38.61,10.81,10.81,0,0,0,1.48.48,11.32,11.32,0,0,0,1.62.37c.57.1,1.15.17,1.72.24v4.35h0a4.22,4.22,0,0,0-1.25.75,24.14,24.14,0,0,1-13.43-5.64c-.27-.2-.47-.44-.74-.68a21.5,21.5,0,0,1,0-31.41A24.11,24.11,0,0,1,35.53,4.15c.17,0,.37,0,.54,0s.47,0,.71,0,.44,0,.67,0a4.27,4.27,0,0,1,.67,0c.44,0,.88,0,1.28.07l1.25.1c.4,0,.81.1,1.18.17s.78.14,1.15.24.74.17,1.08.27.88.24,1.32.37A7.88,7.88,0,0,0,43.42,5.64ZM65.89,32.77a4.45,4.45,0,1,1,4.42-4.45A4.45,4.45,0,0,1,65.89,32.77Z"/><path class="cls-1" d="M96.82,37v-7.1H90.24V37H86.17V20h4.07V26.4h6.57V20h4.07V37Z"/><path class="cls-1" d="M110.85,38.76c-1,2.5-2.24,4-5.22,4a9.56,9.56,0,0,1-2.14-.26l.43-3.31a4.68,4.68,0,0,0,1.26.22c1.21,0,1.62-.58,2-1.61l.38-1-5-11.76h4.33l2.64,7.68h.07L112,25h4.14Z"/><path class="cls-1" d="M124,30.55h-2V37h-4.07V20h6.19c3.69,0,6.6,1.34,6.6,5.23S127.5,30.55,124,30.55Zm-.24-7.27h-1.79v4h1.71c1.52,0,2.93-.46,2.93-2.06S125.19,23.28,123.73,23.28Z"/><path class="cls-1" d="M140.72,37V30.48c0-1.34-.33-2.52-1.74-2.52s-2.12,1.13-2.12,2.54V37H133V18.82h3.91v7.7h0a3.86,3.86,0,0,1,3.41-1.85c3.21,0,4.33,2.5,4.33,4.9V37Z"/><path class="cls-1" d="M154.3,38.76c-1,2.5-2.24,4-5.22,4a9.57,9.57,0,0,1-2.14-.26l.43-3.31a4.67,4.67,0,0,0,1.26.22c1.21,0,1.62-.58,2-1.61l.38-1-5-11.76h4.33L153,32.69h.07L155.46,25h4.14Z"/><path class="cls-1" d="M175.21,37h-4.07l-6.38-17h4.57l3.91,12h.1l3.88-12h4.5Z"/><path class="cls-1" d="M184.45,23.35a2.16,2.16,0,1,1,2.24-2.16A2.19,2.19,0,0,1,184.45,23.35ZM182.5,37V25h3.91V37Z"/><path class="cls-1" d="M196.48,28.54A3.69,3.69,0,0,0,194,27.46c-.74,0-1.48.26-1.48,1s.64.86,2.17,1.2c1.81.41,3.79,1.32,3.79,3.65,0,3-2.64,4.08-5.07,4.08a7.62,7.62,0,0,1-5.17-1.85l2.19-2.33a4,4,0,0,0,2.91,1.34c.64,0,1.41-.26,1.41-1s-.74-1-2.36-1.37-3.45-1.22-3.45-3.48c0-2.86,2.67-4,4.93-4a7.09,7.09,0,0,1,4.76,1.68Z"/><path class="cls-1" d="M202.75,23.35A2.16,2.16,0,1,1,205,21.19,2.2,2.2,0,0,1,202.75,23.35Zm-2,13.61V25h3.91V37Z"/><path class="cls-1" d="M213.78,37.35a6.3,6.3,0,0,1-6.57-6.41c0-3.91,3-6.31,6.57-6.31s6.6,2.4,6.6,6.31A6.3,6.3,0,0,1,213.78,37.35Zm0-9.46a2.83,2.83,0,0,0-2.79,3,2.82,2.82,0,1,0,5.62,0A2.86,2.86,0,0,0,213.78,27.89Z"/><path class="cls-1" d="M230.64,37V30.43c0-1.32-.36-2.52-1.76-2.52s-2.1,1.2-2.1,2.57V37h-3.93V25h3.79v1.66h0a4,4,0,0,1,3.55-2c3.19,0,4.34,2.5,4.34,4.9V37Z"/></svg>