<svg id="Layer_1" data-name="Layer 1" xmlns="http://www.w3.org/2000/svg" viewBox="0 0 221.2 161.8"><defs><style>.cls-1{fill:#00a99d;}</style></defs><title>hyphy-logo</title><path class="cls-1" d="M99.7,66.5c1.4-.5,4.4.7,4.4.7s2,2,4.3.9c0-4.5.1-6.6-3.8-6.6S98.4,67,99.7,66.5Z" transform="translate(-4.4 -9.1)"/><path class="cls-1" d="M150.2,59.1c-.3,0-.7.1-1,.1a7.84,7.84,0,0,0-1.4.2,5.53,5.53,0,0,1,.9,5.3,5.28,5.28,0,0,1-6.9,3.1,5.52,5.52,0,0,1-3.1-2.9,15.17,15.17,0,0,0-3.2,9.3,14.77,14.77,0,0,0,14.6,15,14.69,14.69,0,0,0,12-6.4,15.5,15.5,0,0,0,2.6-8.5A14.74,14.74,0,0,0,150.2,59.1Z" transform="translate(-4.4 -9.1)"/><path class="cls-1" d="M199.7,66.6a38.84,38.84,0,0,0-4.8.4,1.85,1.85,0,0,1-.2-.7c-.2-.6-.3-1.2-.5-1.8-.3-1.2-.8-2.4-1.2-3.6s-.9-2.3-1.4-3.5-.9-2.3-1.5-3.4-1.1-2.2-1.7-3.3-1.2-2.1-1.8-3.2-1.3-2.1-2-3.1l-2.1-3c-.8-1-1.5-2-2.3-2.9s-1.6-1.9-2.4-2.8-1.7-1.8-2.6-2.6a31.89,31.89,0,0,1-2.6-2.6c-.9-.9-1.9-1.6-2.8-2.4s-2-1.5-2.9-2.3a33.68,33.68,0,0,0-3.1-2.1c-1.1-.7-2-1.4-3.1-2s-2.1-1.3-3.2-1.9L154.2,18a37.27,37.27,0,0,0-3.5-1.6c-1.2-.5-2.4-1-3.6-1.4s-2.4-.9-3.7-1.3-2.5-.8-3.7-1.1-2.6-.7-3.8-1-2.6-.6-3.8-.9-2.6-.4-3.9-.7-2.6-.3-4-.5a28.28,28.28,0,0,0-4.1-.3c-1.3,0-2.6-.1-4-.1h-.6c-43.6.2-79.2,31.2-81.6,72.7-.1,1-.1,2-.1,3v1.4a22.6,22.6,0,0,0,.1,2.6c0,.8.1,1.5.1,2.2H26.7a14.72,14.72,0,0,0-1-2.2A9.8,9.8,0,0,0,24,86.5a12.39,12.39,0,0,0-2.2-1.8A23.94,23.94,0,0,0,19,83.4a10.55,10.55,0,0,0-3.1-.4h-.4a11.32,11.32,0,0,0-6,2,15.18,15.18,0,0,0-3.1,3.1,10.53,10.53,0,0,0-2,6v.4a15.46,15.46,0,0,0,.4,3.1,9,9,0,0,0,1.3,2.8,7.87,7.87,0,0,0,1.8,2.2,7.64,7.64,0,0,0,2.3,1.7,14.76,14.76,0,0,0,2.9,1.2,8.92,8.92,0,0,0,2.8.3c.3,0,.5-.1.8-.1h.2a11.23,11.23,0,0,0,9.7-7.2h8.2c.1,0,.3,2.1.4,2.3.2.8.3,1.5.5,2.3.3,1.5.8,3.1,1.2,4.6a92.52,92.52,0,0,0,3.2,8.8,91.61,91.61,0,0,0,4.3,8.2,74.33,74.33,0,0,0,5.3,7.6,77.45,77.45,0,0,0,6.6,7.4c1.7,1.7,3.6,3.3,5.4,4.8,1.1.9,2.2,1.7,3.3,2.5s2.3,1.6,3.5,2.4,2.5,1.5,3.7,2.2,2.5,1.4,3.8,2,2.6,1.3,4,1.9,2.8,1.2,4.2,1.7,2.9,1,4.4,1.5c1.2.4,2.5.8,3.7,1.1l.9.3c1.5.4,3.1.9,4.7,1.3s3.2.7,4.9.9a5.9,5.9,0,0,0,1.4.2,10.32,10.32,0,0,0,1.4,3,12.18,12.18,0,0,0,2.9,3.1,8.34,8.34,0,0,0,1.2.8c.1,0,.1.1.2.1a10.85,10.85,0,0,0,5.4,1.4,11.66,11.66,0,0,0,3.8-.7,8.43,8.43,0,0,0,1.4-.6.35.35,0,0,0,.2-.1c.2-.1.3-.2.5-.3a11.11,11.11,0,0,0,5.1-6.5.37.37,0,0,1,.1-.3c0-.1.1-.2.1-.3a9.25,9.25,0,0,0,.4-2.9,11.39,11.39,0,0,0-3.7-8.5,11.83,11.83,0,0,0-3.9-2.3.1.1,0,0,1-.1-.1V128.5h-6a47.76,47.76,0,0,1-5.3-.6c-1.6-.3-3.2-.7-4.8-1.1a24.06,24.06,0,0,1-4.3-1.5,37.29,37.29,0,0,1-4-2,28.46,28.46,0,0,1-3.7-2.3c-1.2-.8-2.3-1.7-3.3-2.5s-2-1.9-3-2.9a26.92,26.92,0,0,1-2.7-3.2q-1.2-1.65-2.4-3.6a28.68,28.68,0,0,1-2-3.9,36.64,36.64,0,0,1-1.5-4.3c-.2-.7-.3-1.4-.5-2h40.8V91.1H74.8v-.9a29.26,29.26,0,0,1,.9-6.7,31.21,31.21,0,0,1,1.9-5.9A39.08,39.08,0,0,1,97.9,57.3a45.69,45.69,0,0,1,6.2-2.2,54,54,0,0,1,7.2-1.3c1.1-.1,2.3-.2,3.4-.2h4.2s.3-1.4.4-2c0-.1.1-.2.1-.3a9.38,9.38,0,0,1,.6-1.5,15.11,15.11,0,0,1,.9-1.8c.1-.3.3-.4.3-.7a1.44,1.44,0,0,0,.2-.3c0-.1.1-.1.1-.2s.1-.1.1-.2c.9-1.5,4.2-5.6,10.9-8.2a31.36,31.36,0,0,1,7.9-2,32.09,32.09,0,0,1,6.3-.3,10.28,10.28,0,0,1,1.7.1c1.3.1,2.6.2,3.8.4a42.09,42.09,0,0,1,4.8,1.2,37.89,37.89,0,0,1,4.2,1.8,32.85,32.85,0,0,1,3.7,2.2,29.11,29.11,0,0,1,3.3,2.6c1,.9,2,1.9,3,2.9a41.49,41.49,0,0,1,2.7,3.2,36.41,36.41,0,0,1,2.4,3.5c.8,1.3,1.5,2.6,2.1,3.7a37.54,37.54,0,0,1,1.9,4.1c.6,1.5,1.1,3,1.5,4.3.3,1.1.6,2.2.8,3.3s.4,2.3.7,3.5a25.52,25.52,0,1,0,16.4-6.3ZM11.2,94.4a4.7,4.7,0,1,1,4.7,4.7A4.69,4.69,0,0,1,11.2,94.4ZM120,159.6a4.7,4.7,0,1,1-4.7-4.7A4.76,4.76,0,0,1,120,159.6ZM133.1,25.7a37.42,37.42,0,0,0-6.7,2.6,32.72,32.72,0,0,0-12.7,12.8c-1.4,2.6-2.1,4.4-2.3,4.8V46l-2.9.3c-1.7.3-3.3.5-4.9.9a34.28,34.28,0,0,0-5.7,1.7,42.57,42.57,0,0,0-7.5,3.5A47.65,47.65,0,0,0,72.9,70a39.45,39.45,0,0,0-3.2,7.3,37,37,0,0,0-1.4,5.5c-.3,1.5-.5,3.1-.7,4.7-.1,1.2-.2,2.4-.2,3.6v.7a49.07,49.07,0,0,0,.4,5.5c.3,1.7.6,3.3,1,4.9s.9,3,1.4,4.4a37.54,37.54,0,0,0,1.9,4.1c.7,1.3,1.4,2.5,2.1,3.7a28,28,0,0,0,2.5,3.5c.9,1.1,1.8,2.1,2.7,3.1a41.07,41.07,0,0,0,3,2.9,40.31,40.31,0,0,0,3.2,2.6q1.65,1.2,3.6,2.4c1.3.8,2.5,1.4,3.8,2.1a36.52,36.52,0,0,0,4.1,1.8,32.21,32.21,0,0,0,4.4,1.4,33.76,33.76,0,0,0,4.8,1.1c1.7.3,3.4.5,5.1.7v12.8h-.1a12.52,12.52,0,0,0-3.7,2.2,71.84,71.84,0,0,1-39.8-16.6c-.8-.6-1.4-1.3-2.2-2a62.93,62.93,0,0,1,0-92.4c11.8-11,27.3-17.5,44.1-18.7.5,0,1.1-.1,1.6-.1.7,0,1.4-.1,2.1-.1s1.3-.1,2-.1a12.75,12.75,0,0,1,2,.1c1.3,0,2.6.1,3.8.2l3.7.3c1.2.1,2.4.3,3.5.5s2.3.4,3.4.7,2.2.5,3.2.8c1.4.3,2.6.7,3.9,1.1A23.52,23.52,0,0,0,133.1,25.7Zm66.6,79.8a13.1,13.1,0,1,1,13.1-13.1A13.14,13.14,0,0,1,199.7,105.5Z" transform="translate(-4.4 -9.1)"/></svg>